# xmcd CD database file generated by MAGIX_Freedb v0.9beta0
# 
# Track frame offsets:
#      150
#      12363
#      31088
#      52652
#      82391
#      95973
#      116140
#      140241
#      164299
#      178813
# 
# Disc length: 2614 seconds
# 
# Revision: 0 
# Processed by: cddbd v1.4PL0 Copyright (c) Steve Scherf et al.
# Submitted via: MAGIX_Freedb v0.9beta0
# 
DISCID=8b0a340a
DTITLE=SOLD - Not yet
DYEAR=2002
DGENRE=
TTITLE0=SOLD - Really
TTITLE1=SOLD - Sweet Home  Alabama
TTITLE2=SOLD - Run To Toronto
TTITLE3=SOLD - Knockin´on Heaven´s Door
TTITLE4=SOLD - Stray Cat Strut
TTITLE5=SOLD - Praise Our Legislation
TTITLE6=SOLD - Wish You Where Here
TTITLE7=SOLD - Moondance
TTITLE8=SOLD - Common Sense
TTITLE9=Sold - Crossroads
EXTD=
EXTT0=
EXTT1=
EXTT2=
EXTT3=
EXTT4=
EXTT5=
EXTT6=
EXTT7=
EXTT8=
EXTT9=
PLAYORDER=
